<?xml version="1.0" encoding="utf-8"?>
<!-- Generator: $$$/GeneralStr/196=Adobe Illustrator 27.6.0, SVG Export Plug-In . SVG Version: 6.00 Build 0)  -->
<svg version="1.1" id="Calque_1" xmlns="http://www.w3.org/2000/svg" xmlns:xlink="http://www.w3.org/1999/xlink" x="0px" y="0px"
	 viewBox="0 0 620 620" style="enable-background:new 0 0 620 620;" xml:space="preserve">
<style type="text/css">
	.st0{fill:#FFFFFF;}
</style>
<g>
	<path class="st0" d="M514.4,105.6C459.8,51.1,387.2,21,310,21s-149.8,30.1-204.4,84.6S21,232.8,21,310s30.1,149.8,84.6,204.4
		S232.8,599,310,599s149.8-30.1,204.4-84.6S599,387.2,599,310S568.9,160.2,514.4,105.6z M559,310c0,51.3-15.4,100.3-44.1,141.6
		L454,328.2L323.7,61.4c61.4,3.3,118.6,28.8,162.4,72.6C533.1,181,559,243.5,559,310z M311.1,126.9L404,317H219.8L311.1,126.9z
		 M133.9,133.9c44.3-44.3,102.2-69.8,164.4-72.7l-189.8,395C77.6,414,61,363.3,61,310C61,243.5,86.9,181,133.9,133.9z M310,559
		c-65.1,0-126.3-24.8-172.9-69.9L200.5,357h223l63.3,128.2c-0.3,0.3-0.5,0.5-0.8,0.8C439,533.1,376.5,559,310,559z"/>
</g>
<g>
	<path class="st0" d="M197.1,455.4c0-21,15.9-37.4,38.3-37.4c22.5,0,38.3,16.6,38.3,37.4c0,21-15.8,37.4-38.4,37.4
		C212.9,492.8,197.1,476.6,197.1,455.4z M235.4,477.4c11.8,0,21.8-8.5,21.8-22c0-13.3-10-22-21.8-22s-21.8,8.7-21.8,22
		C213.6,468.9,223.6,477.4,235.4,477.4z"/>
	<path class="st0" d="M284.5,419.3H316c14.5,0,22.6,8.4,22.6,19.5c0,8.7-5.1,14.8-12,15.8v2.2c5.1,1.5,11.3,6.5,11.3,17.1v17.6h-16
		v-15.1c0-5-3.2-8.8-9.6-8.8h-12.1v23.8h-15.9V419.3z M313,452.8c5.3,0,9.4-4.1,9.4-9.4c0-5.2-4.1-9.3-9.4-9.3h-12.7v18.7H313z"/>
	<path class="st0" d="M347.4,455.4c0-21,15.9-37.4,38.2-37.4c16.8,0,28.2,8.3,33.7,20.3l-14.1,7.5c-3.2-7.7-10.3-12.4-19.6-12.4
		c-11.8,0-21.7,8.7-21.7,22c0,13.5,9.9,22,21.5,22c8.7,0,16.8-4,20-12.1h-19.3v-13.9H422v40.1h-16.5v-9h-2.1
		c-3.2,6.1-9.7,10.3-20,10.3C363.5,492.8,347.4,476.6,347.4,455.4z"/>
</g>
</svg>
