<?xml version="1.0" encoding="utf-8"?>
<!-- Generator: $$$/GeneralStr/196=Adobe Illustrator 27.6.0, SVG Export Plug-In . SVG Version: 6.00 Build 0)  -->
<svg version="1.1" id="Calque_1" xmlns="http://www.w3.org/2000/svg" xmlns:xlink="http://www.w3.org/1999/xlink" x="0px" y="0px"
	 viewBox="0 0 620 620" style="enable-background:new 0 0 620 620;" xml:space="preserve">
<style type="text/css">
	.st0{fill:#FF0000;}
</style>
<g>
	<path class="st0" d="M263.1,436.1c-3.3-3.2-7.3-5.8-11.9-7.6s-9.7-2.7-15.1-2.7c-5.5,0-10.6,0.9-15.2,2.7
		c-4.6,1.8-8.5,4.4-11.8,7.6c-3.3,3.2-5.9,7-7.7,11.4c-1.9,4.4-2.8,9-2.8,14.1c0,5.1,0.9,9.7,2.8,14.1c1.9,4.4,4.4,8.1,7.7,11.4
		c3.3,3.2,7.2,5.8,11.8,7.6c4.6,1.8,9.6,2.7,15.2,2.7c5.5,0,10.5-0.9,15.1-2.7c4.6-1.8,8.6-4.4,11.9-7.6s5.9-7,7.8-11.4
		c1.9-4.3,2.8-9,2.8-14.1c0-5.1-0.9-9.7-2.8-14.1C269,443.1,266.4,439.3,263.1,436.1z M253.7,469c-1,2.3-2.4,4.3-4.2,5.9
		c-1.8,1.7-3.8,3-6.1,3.9c-2.3,0.9-4.8,1.4-7.3,1.4c-2.6,0-5-0.5-7.3-1.4c-2.3-0.9-4.3-2.2-6.1-3.9c-1.7-1.7-3.1-3.7-4.1-5.9
		c-1-2.3-1.5-4.8-1.5-7.5s0.5-5.2,1.5-7.5s2.4-4.3,4.1-5.9c1.7-1.7,3.8-3,6.1-3.9c2.3-0.9,4.8-1.4,7.3-1.4c2.6,0,5,0.5,7.3,1.4
		c2.3,0.9,4.3,2.2,6.1,3.9c1.8,1.7,3.2,3.7,4.2,5.9c1,2.3,1.5,4.8,1.5,7.5C255.2,464.3,254.7,466.8,253.7,469z"/>
	<path class="st0" d="M331,461.2c2.5-3.2,3.7-7.4,3.7-12.6c0-2.9-0.5-5.6-1.4-8.1c-0.9-2.5-2.3-4.7-4.1-6.7c-1.8-1.9-4.2-3.4-7-4.5
		c-2.8-1.1-6.1-1.7-9.9-1.7h-27.5v67.9h17.6v-26.1l16.8,26.1h22l-21.3-27.8C324.8,466.6,328.5,464.4,331,461.2z M313.8,455.8
		c-1.9,1.4-4.5,2.2-8,2.2h-3.3v-16.7h3.3c3.5,0,6.1,0.7,8,2.2c1.9,1.4,2.8,3.5,2.8,6.2C316.6,452.3,315.7,454.4,313.8,455.8z"/>
	<path class="st0" d="M380.8,471.2h14.5c-0.3,2-0.9,3.7-1.7,5c-0.8,1.4-1.9,2.5-3.2,3.4c-1.3,0.9-2.7,1.5-4.4,1.9
		c-1.6,0.4-3.3,0.6-5,0.6c-2.9,0-5.5-0.5-7.7-1.5s-4.1-2.4-5.6-4.2c-1.5-1.8-2.6-3.9-3.4-6.4s-1.1-5.1-1.1-8c0-3.2,0.4-6.1,1.3-8.6
		c0.9-2.6,2.1-4.8,3.6-6.6s3.4-3.2,5.5-4.2c2.1-1,4.6-1.5,7.2-1.5c3.2,0,6,0.8,8.5,2.4c2.5,1.6,4.5,4.3,6.1,8l16.7-6.9
		c-3.1-6.4-7.3-11.2-12.7-14.2c-5.3-3.1-11.6-4.6-18.6-4.6c-5.5,0-10.4,0.9-14.8,2.6c-4.4,1.7-8.2,4.2-11.4,7.3s-5.6,6.9-7.3,11.3
		c-1.7,4.4-2.6,9.3-2.6,14.5c0,5.3,0.9,10.2,2.6,14.6c1.7,4.4,4.2,8.2,7.3,11.3c3.1,3.1,6.9,5.6,11.2,7.3c4.3,1.7,9.2,2.6,14.4,2.6
		c3.8,0,7.5-0.5,11-1.4c3.5-1,6.7-2.4,9.6-4.2c2.9-1.8,5.4-4.1,7.6-6.8s3.9-5.9,5.1-9.4c0.9-2.5,1.5-5.2,1.8-8.2
		c0.3-2.9,0.5-6.2,0.5-9.8h-35V471.2z"/>
	<path class="st0" d="M514.4,105.6C459.8,51.1,387.2,21,310,21c-77.2,0-149.8,30.1-204.4,84.6S21,232.8,21,310
		c0,77.2,30.1,149.8,84.6,204.4S232.8,599,310,599c77.2,0,149.8-30.1,204.4-84.6S599,387.2,599,310
		C599,232.8,568.9,160.2,514.4,105.6z M559,310c0,51.3-15.4,100.3-44.1,141.6L454,328.2L323.7,61.4c61.4,3.3,118.6,28.8,162.4,72.6
		C533.1,181,559,243.5,559,310z M311.1,126.9L404,317H219.8L311.1,126.9z M133.9,133.9c44.3-44.3,102.2-69.8,164.4-72.7l-189.8,395
		C77.6,414,61,363.3,61,310C61,243.5,86.9,181,133.9,133.9z M310,559c-65.1,0-126.3-24.8-172.9-69.9L200.5,357h223l63.3,128.2
		c-0.3,0.3-0.5,0.5-0.8,0.8C439,533.1,376.5,559,310,559z"/>
</g>
</svg>
